<svg width="214" height="214" viewBox="0 0 214 214" fill="none" xmlns="http://www.w3.org/2000/svg">
<path d="M20.134 56.7029H42.5686V41.6778H20.134V25.7139H120.08V87.6919H135.088V25.7139H149.105V10.6888H135.088H120.08H20.134H5.12607V25.7139V41.6778V56.7029V87.6919H20.134V56.7029Z" fill="white"/>
<path d="M122.035 0H96.6173V7.02452H122.035V0Z" fill="white"/>
<path d="M48.2798 58.2657C48.2798 64.3104 50.0702 70.2193 53.4246 75.2452C56.7789 80.2711 61.5466 84.1884 67.1248 86.5016C72.7029 88.8148 78.8409 89.42 84.7626 88.2407C90.6843 87.0615 96.1238 84.1507 100.393 79.8765C104.662 75.6023 107.57 70.1566 108.748 64.2281C109.926 58.2996 109.321 52.1546 107.011 46.57C104.7 40.9855 100.787 36.2123 95.7671 32.8541C90.7469 29.4959 84.8448 27.7034 78.8071 27.7034C70.7107 27.7034 62.946 30.9234 57.221 36.6549C51.496 42.3865 48.2798 50.1601 48.2798 58.2657ZM95.5784 58.2657C95.5784 61.5879 94.5943 64.8354 92.7507 67.5976C90.907 70.3598 88.2865 72.5125 85.2207 73.7836C82.1548 75.0547 78.7813 75.387 75.5268 74.7385C72.2723 74.09 69.283 72.4898 66.9369 70.1403C64.5909 67.7908 62.9935 64.7976 62.3468 61.5392C61.7 58.2807 62.033 54.9035 63.3036 51.8345C64.5742 48.7655 66.7254 46.1427 69.485 44.2978C72.2446 42.4529 75.4887 41.4687 78.8071 41.4698C81.0102 41.4691 83.1918 41.9031 85.2272 42.747C87.2627 43.5909 89.1121 44.8281 90.6696 46.388C92.2272 47.9478 93.4625 49.7997 94.3047 51.8378C95.147 53.8758 95.5798 56.0601 95.5784 58.2657Z" fill="white"/>
<path d="M177.619 88.8226C183.656 88.8226 189.559 87.0301 194.579 83.6716C199.599 80.3131 203.512 75.5396 205.823 69.9548C208.133 64.37 208.737 58.2246 207.559 52.296C206.381 46.3673 203.473 40.9217 199.203 36.6477C194.933 32.3737 189.493 29.4633 183.571 28.2847C177.649 27.106 171.511 27.712 165.933 30.026C160.355 32.34 155.587 36.2581 152.233 41.2847C148.88 46.3114 147.09 52.2208 147.091 58.2657C147.091 62.2789 147.881 66.2529 149.415 69.9606C150.949 73.6682 153.198 77.0371 156.033 79.8746C158.868 82.7121 162.233 84.9628 165.937 86.4982C169.64 88.0335 173.61 88.8233 177.619 88.8226ZM177.619 41.4698C180.937 41.4698 184.18 42.4548 186.939 44.3004C189.698 46.146 191.848 48.7691 193.118 51.8382C194.388 54.9072 194.72 58.2843 194.073 61.5424C193.426 64.8005 191.828 67.7932 189.481 70.1422C187.135 72.4911 184.146 74.0908 180.891 74.7389C177.637 75.387 174.264 75.0543 171.198 73.7831C168.133 72.5118 165.513 70.3591 163.669 67.597C161.826 64.8349 160.842 61.5876 160.842 58.2657C160.841 56.0598 161.275 53.8754 162.117 51.8373C162.96 49.7992 164.196 47.9474 165.754 46.3876C167.312 44.8278 169.162 43.5907 171.198 42.7469C173.233 41.903 175.415 41.4691 177.619 41.4698Z" fill="white"/>
<path d="M49.6117 154.71C57.39 150.566 61.5989 143.392 61.5989 133.343V127.476C61.5989 111.379 50.608 100.861 33.5223 100.861H5.12607V212.405H35.0673C52.1477 212.405 63.1439 201.887 63.1439 185.79V176.723C63.1439 166.028 58.2371 158.535 49.6117 154.71ZM23.0535 116.777H32.6965C39.6224 116.777 43.6927 120.601 43.6927 127.135V135.109C43.6927 143.232 39.6331 147.062 31.0077 147.062H23.0535V116.777ZM45.2164 186.115C45.2164 192.649 41.1568 196.473 34.2202 196.473H23.0322V162.999H32.526C41.1568 162.999 45.2164 166.823 45.2164 174.952V186.115Z" fill="white"/>
<path d="M106.825 99.2448C89.5742 99.2448 78.0559 110.083 78.0559 126.18V187.065C78.0559 203.162 89.5582 214 106.825 214C124.092 214 135.594 203.162 135.594 187.065V126.18C135.584 110.083 124.081 99.2448 106.825 99.2448ZM117.651 187.065C117.651 194.079 113.421 198.063 106.825 198.063C100.229 198.063 95.9993 194.079 95.9993 187.065V126.18C95.9993 119.166 100.229 115.182 106.825 115.182C113.421 115.182 117.651 119.166 117.651 126.18V187.065Z" fill="white"/>
<path d="M185.951 155.505L208.279 100.84H189.675L176.478 136.544L162.44 100.84H143.159L165.147 154.71L141.636 212.405H160.24L174.619 173.517L189.845 212.405H209.126L185.951 155.505Z" fill="white"/>
</svg>
